<svg width="66" height="65" viewBox="0 0 66 65" fill="none" xmlns="http://www.w3.org/2000/svg">
<g id="Map pin">
<g id="Icon">
<path d="M57.75 27.0833C57.75 46.0417 33 62.2917 33 62.2917C33 62.2917 8.25 46.0417 8.25 27.0833C8.25 20.6187 10.8576 14.4188 15.4991 9.84761C20.1406 5.27641 26.4359 2.70834 33 2.70834C39.5641 2.70834 45.8594 5.27641 50.5009 9.84761C55.1424 14.4188 57.75 20.6187 57.75 27.0833Z" fill="#4996FE"/>
<path d="M33 35.2083C37.5563 35.2083 41.25 31.5707 41.25 27.0833C41.25 22.596 37.5563 18.9583 33 18.9583C28.4437 18.9583 24.75 22.596 24.75 27.0833C24.75 31.5707 28.4437 35.2083 33 35.2083Z" fill="#4996FE"/>
<path d="M57.75 27.0833C57.75 46.0417 33 62.2917 33 62.2917C33 62.2917 8.25 46.0417 8.25 27.0833C8.25 20.6187 10.8576 14.4188 15.4991 9.84761C20.1406 5.27641 26.4359 2.70834 33 2.70834C39.5641 2.70834 45.8594 5.27641 50.5009 9.84761C55.1424 14.4188 57.75 20.6187 57.75 27.0833Z" stroke="#001952" stroke-width="4" stroke-linecap="round" stroke-linejoin="round"/>
<path d="M33 35.2083C37.5563 35.2083 41.25 31.5707 41.25 27.0833C41.25 22.596 37.5563 18.9583 33 18.9583C28.4437 18.9583 24.75 22.596 24.75 27.0833C24.75 31.5707 28.4437 35.2083 33 35.2083Z" stroke="#001952" stroke-width="4" stroke-linecap="round" stroke-linejoin="round"/>
</g>
</g>
</svg>
